<?xml version="1.0" encoding="utf-8"?>
<!-- Generator: Adobe Illustrator 17.0.1, SVG Export Plug-In . SVG Version: 6.00 Build 0)  -->
<!DOCTYPE svg PUBLIC "-//W3C//DTD SVG 1.1//EN" "http://www.w3.org/Graphics/SVG/1.1/DTD/svg11.dtd">
<svg version="1.1" id="Layer_1" xmlns="http://www.w3.org/2000/svg" xmlns:xlink="http://www.w3.org/1999/xlink" x="0px" y="0px"
	 width="1141.26px" height="286.113px" viewBox="0 0 1141.26 286.113" enable-background="new 0 0 1141.26 286.113"
	 xml:space="preserve">
<g>
	<defs>
		<rect id="SVGID_1_" x="0" y="0" width="1140.866" height="286.113"/>
	</defs>
	<clipPath id="SVGID_2_">
		<use xlink:href="#SVGID_1_"  overflow="visible"/>
	</clipPath>
	<linearGradient id="SVGID_3_" gradientUnits="userSpaceOnUse" x1="570.9791" y1="286.1128" x2="570.9791" y2="-317.2093">
		<stop  offset="0" style="stop-color:#FFFFFF"/>
		<stop  offset="0.6201" style="stop-color:#A7D6DA"/>
	</linearGradient>
	<rect x="1.093" y="-317.209" clip-path="url(#SVGID_2_)" fill="url(#SVGID_3_)" width="1139.773" height="603.322"/>
	<defs>
		<filter id="Adobe_OpacityMaskFilter" filterUnits="userSpaceOnUse" x="1.093" y="-317.209" width="1140.182" height="555.297">
			<feColorMatrix  type="matrix" values="1 0 0 0 0  0 1 0 0 0  0 0 1 0 0  0 0 0 1 0"/>
		</filter>
	</defs>
	<mask maskUnits="userSpaceOnUse" x="1.093" y="-317.209" width="1140.182" height="555.297" id="SVGID_4_">
		<g filter="url(#Adobe_OpacityMaskFilter)">
			<rect x="0" y="0" clip-path="url(#SVGID_2_)" fill="#FFFFFF" width="1140.866" height="286.113"/>
		</g>
	</mask>
	<g opacity="0.31" clip-path="url(#SVGID_2_)" mask="url(#SVGID_4_)">
		<path fill="#FFFFFF" d="M569.924,238.088L1.093-309.742c0,33.202,0,66.41,0,99.612l568.215,448.218
			C569.513,238.088,569.719,238.088,569.924,238.088z"/>
		<path fill="#FFFFFF" d="M568.782,238.088L1.093-149.948c0,26.166,0,52.332,0,78.498l566.699,309.538
			C568.122,238.088,568.451,238.088,568.782,238.088z"/>
		<path fill="#FFFFFF" d="M566.835,238.088L1.093-20.683c0,22.205,0,44.409,0,66.611l563.73,192.16
			C565.494,238.088,566.164,238.088,566.835,238.088z"/>
		<path fill="#FFFFFF" d="M562.519,238.088L1.093,89.937c0,20.125,0,40.249,0,60.375l554.618,87.777
			C557.98,238.088,560.249,238.088,562.519,238.088z"/>
		<path fill="#FFFFFF" d="M542.183,238.088L1.093,190.389c0,15.897,0,31.799,0,47.699
			C181.471,238.088,361.827,238.088,542.183,238.088z"/>
		<path fill="#FFFFFF" d="M570.727,238.088L159.38-317.209c-30.448,0-60.898,0-91.343,0l502.248,555.297
			C570.433,238.088,570.58,238.088,570.727,238.088z"/>
		<path fill="#FFFFFF" d="M571.335,238.088L285.588-317.209c-24.048,0-48.093,0-72.138,0l357.538,555.297
			C571.104,238.088,571.218,238.088,571.335,238.088z"/>
		<path fill="#FFFFFF" d="M571.849,238.088L392.114-317.209c-20.437,0-40.872,0-61.309,0l240.748,555.297
			C571.651,238.088,571.75,238.088,571.849,238.088z"/>
		<path fill="#FFFFFF" d="M572.301,238.088l-86.323-555.297c-18.535,0-37.067,0-55.599,0l141.655,555.297
			C572.123,238.088,572.211,238.088,572.301,238.088z"/>
		<path fill="#FFFFFF" d="M572.746,238.088l5.097-555.297c-17.769,0-35.537,0-53.305,0l47.95,555.297
			C572.574,238.088,572.659,238.088,572.746,238.088z"/>
		<path fill="#FFFFFF" d="M573.159,238.088l90.644-555.297c-17.989,0-35.974,0-53.963,0L572.9,238.088
			C572.986,238.088,573.073,238.088,573.159,238.088z"/>
		<path fill="#FFFFFF" d="M573.653,238.088l192.495-555.297c-19.374,0-38.746,0-58.117,0L573.372,238.088
			C573.466,238.088,573.559,238.088,573.653,238.088z"/>
		<path fill="#FFFFFF" d="M574.205,238.088l306.263-555.297c-22.286,0-44.569,0-66.855,0L573.882,238.088
			C573.989,238.088,574.098,238.088,574.205,238.088z"/>
		<path fill="#FFFFFF" d="M574.893,238.088l447.975-555.297c-27.802,0-55.608,0-83.415,0L574.49,238.088
			C574.623,238.088,574.757,238.088,574.893,238.088z"/>
		<path fill="#FFFFFF" d="M575.839,238.088l565.421-488.101c0-22.164,0-44.327,0-66.491c0-0.235,0-0.47,0-0.705
			c-12.656,0-25.318,0-37.973,0L575.28,238.088C575.465,238.088,575.652,238.088,575.839,238.088z"/>
		<path fill="#FFFFFF" d="M577.275,238.088L1141.26-95.224c0-27.121,0-54.24,0-81.362L576.388,238.088
			C576.685,238.088,576.981,238.088,577.275,238.088z"/>
		<path fill="#FFFFFF" d="M579.99,238.088L1141.26,30.251c0-22.541,0-45.082,0-67.626L578.223,238.088
			C578.813,238.088,579.4,238.088,579.99,238.088z"/>
		<path fill="#FFFFFF" d="M588.136,238.088l553.124-96.592c0-20.147,0-40.297,0-60.447L582.301,238.088
			C584.247,238.088,586.192,238.088,588.136,238.088z"/>
		<path fill="#FFFFFF" d="M1140.917,238.088c0.398-0.061,0.372-0.557,0.343-1.057c0-15.944,0-31.889,0-47.832l-538.868,48.889
			C781.895,238.088,961.396,238.088,1140.917,238.088z"/>
	</g>
	<path clip-path="url(#SVGID_2_)" fill="#FFFFFF" d="M144.094,102.354c-2.228-7.186-10.875-12.545-21.208-12.545
		c-2.912,0-5.688,0.429-8.225,1.2c-2.436-8.063-12.11-14.092-23.683-14.092c-12.474,0-22.748,7.004-24.12,16.014
		c-3.355-1.3-7.167-2.04-11.214-2.04c-13.432,0-24.319,8.102-24.319,18.097c0,9.996,10.887,18.099,24.319,18.099
		c0.072,0,0.142-0.004,0.213-0.004c0,0,87.636-0.063,87.656-0.063c9.161,0,16.587-5.526,16.587-12.344
		C160.1,108.004,152.984,102.585,144.094,102.354z"/>
	<path clip-path="url(#SVGID_2_)" fill="#FFFFFF" d="M89.758,2.636c-1.774-5.163-8.655-9.013-16.88-9.013
		c-2.319,0-4.528,0.308-6.548,0.862C64.392-11.31,56.691-15.64,47.479-15.64c-9.928,0-18.104,5.031-19.197,11.506
		c-2.671-0.935-5.706-1.466-8.926-1.466C8.664-5.601,0,0.221,0,7.402c0,7.181,8.664,13.002,19.356,13.002
		c0.058,0,0.112-0.003,0.17-0.003c0,0,69.753-0.046,69.77-0.046c7.293,0,13.202-3.971,13.202-8.867
		C102.498,6.694,96.834,2.801,89.758,2.636z"/>
	<path clip-path="url(#SVGID_2_)" fill="#FFFFFF" d="M318.815,38.716c-0.825,0-1.634,0.037-2.439,0.079
		c0.179-0.965,0.283-1.946,0.283-2.942c0-13.526-17.055-24.491-38.093-24.491c-16.915,0-31.249,7.09-36.22,16.897
		c-4.026-1.265-8.535-1.997-13.319-1.997c-15.364,0-28.034,7.338-30.073,16.857c-1.191-0.107-2.397-0.181-3.633-0.181
		c-14.533,0-26.316,7.577-26.316,16.92c0,9.343,11.782,16.919,26.316,16.919h123.495c16.348,0,29.601-8.519,29.601-19.029
		C348.416,47.238,335.163,38.716,318.815,38.716z"/>
	<g clip-path="url(#SVGID_2_)">
		<path fill="#5D925D" d="M605.17,286.113h535.696V218.26C832.072,185.877,605.17,286.113,605.17,286.113z"/>
	</g>
	<g clip-path="url(#SVGID_2_)">
		<path fill="#FFE9BC" d="M731.885,238.088c0-62.393-68.796-112.971-153.662-112.971c-84.865,0-153.662,50.578-153.662,112.971
			c0,17.109,5.201,33.32,14.461,47.853h278.403C726.683,271.408,731.885,255.197,731.885,238.088z"/>
	</g>
	<path clip-path="url(#SVGID_2_)" fill="#78B674" d="M317.947,286.113c0,0,378.405-137.629,822.918,0H317.947z"/>
	<g clip-path="url(#SVGID_2_)">
		<path fill="#046937" d="M857.352,279.583c-5.334-5.034-19.167-7.595-31.914-6.119l-43.57-42.742c0,0-3.687-1.029-8.497-0.223
			c-4.811,0.807-5.131,2.511-5.131,2.511l22.136,18.098l-13.602,5.943c-1.362-0.394-2.849-0.682-4.39-0.805
			c-5.881-0.473-10.351,1.471-9.991,4.34c0.367,2.871,5.432,5.581,11.309,6.052c5.879,0.47,10.352-1.475,9.989-4.342
			c-0.185-1.427-1.529-2.81-3.551-3.902l2.831-1.689l4.519,5.288c-1.436,0.663-2.257,1.645-2.11,2.813
			c0.312,2.424,4.577,4.704,9.537,5.105c4.96,0.398,8.726-1.244,8.424-3.661c-0.312-2.424-4.577-4.707-9.537-5.103
			c-1.42-0.114-2.72-0.046-3.878,0.144l-5.042-5.121l7.266-3.61l26.938,22.022c-9.69,2.347-14.523,6.939-12.032,11.36h51.835
			C859.978,283.884,859.566,281.674,857.352,279.583z"/>
		<path fill="#046937" d="M878.722,285.823l-43.57-42.742c0,0-3.686-1.029-8.497-0.223c-4.811,0.807-5.131,2.511-5.131,2.511
			l49.627,40.572h23.094C889.323,285.301,883.936,285.219,878.722,285.823z"/>
	</g>
	<path clip-path="url(#SVGID_2_)" fill="#84C880" d="M1.326,285.941c0,0,53.213-15.319,143.171-28.723
		c149.929-22.34,401.926-39.361,679.748,28.723H1.326z"/>
	<path clip-path="url(#SVGID_2_)" fill="#046937" d="M258.699,267.326c0.319,0.098,0.622,0.211,0.899,0.339
		c1.281,0.591,1.97,1.445,1.891,2.35c-0.048,0.54-0.367,1.072-0.913,1.553c2.474,0.874,3.591,2.396,2.515,3.732
		c-0.933,1.164-3.308,1.916-6.049,1.916c-0.323,0-0.648-0.011-0.971-0.033c-0.742,1.45-3.208,2.52-6.134,2.52
		c-3.507,0-6.363-1.538-6.363-3.43c0-0.061,0.005-0.128,0.01-0.188c-0.123,0.008-0.247,0.015-0.372,0.021
		c-0.176,0.005-0.347,0.007-0.519,0.007c-3.629,0-6.644-1.275-6.864-2.903c-0.118-0.859,0.568-1.717,1.878-2.349
		c0.79-0.381,1.76-0.663,2.825-0.83c-0.593-1.468,0.706-2.956,3.347-3.573c0.797-0.187,1.649-0.277,2.539-0.277
		c1.985,0,3.885,0.476,5.198,1.262c1.156-0.368,2.485-0.57,3.826-0.57c0.587,0,1.149,0.051,1.695,0.128
		c7.263-4.02,12.442-8.825,15.035-14.016c1.643,0.247,3.023-1.087,4.664-0.838C272.973,257.369,266.906,263.603,258.699,267.326z"/>
	<g clip-path="url(#SVGID_2_)">
		<polygon fill="#046937" points="372.887,285.941 344.927,285.941 384.258,257.055 417.759,257.055 		"/>
		<path fill="#754D25" d="M384.258,257.055c0,0,4.127,4.384,17.515,3.903c13.388-0.481,15.986-3.903,15.986-3.903l-3.854-151.235
			l-14.525,0.866L384.258,257.055z"/>
		<path fill="#775939" d="M525.56,110.211c0,0,6.696,2.376,7.159,1.867c0.461-0.509,0.232-2.038,0.232-2.038
			s7.157,1.529,8.542-0.339c1.387-1.867,4.851-4.414,6.927-4.075c2.079,0.34,0.692-4.075-5.772-1.527
			c-6.465,2.547-6.467-9.846-9.929-11.545c-3.464-1.697-3.464,5.943-3.464,5.943s1.385,5.941,2.077,6.62
			c0.692,0.679,2.079,2.038,2.079,2.038S524.175,108.344,525.56,110.211z"/>
		<path fill="#775939" d="M606.599,149.048c0,0,4.385,2.687,4.385,3.224s2.435-4.478,5.116-2.329
			c2.68,2.149-0.487,7.524,10.721,10.926c0,0-4.143-10.926-3.413-12.18c0.732-1.254,4.143-3.046,4.143-3.046
			s-6.336-0.537-11.451,0.538C610.985,147.256,610.74,149.048,606.599,149.048z"/>
		<path fill="#775939" d="M567.618,141.346c0,0-5.605,0.717-6.578,1.612c-0.975,0.895,5.358,2.329,6.091,2.507
			c0.73,0.178,2.193-3.046,6.091-2.329c3.898,0.717,9.014,1.612,9.989,1.434c0.975-0.18-4.873-3.046-3.898-3.404
			c0.975-0.358,3.655-2.507-2.438-2.686c-6.09-0.18-8.526-5.016-9.256-7.524C566.885,128.449,561.039,135.971,567.618,141.346z"/>
		<g>
			<g>
				<defs>
					<ellipse id="SVGID_5_" cx="407.24" cy="83.771" rx="59.997" ry="32.557"/>
				</defs>
				<use xlink:href="#SVGID_5_"  overflow="visible" fill="#64B148"/>
				<clipPath id="SVGID_6_">
					<use xlink:href="#SVGID_5_"  overflow="visible"/>
				</clipPath>
			</g>
		</g>
		<g>
			<path fill="#754D25" d="M408.923,175.797l-1.138-7.731c5.688-0.455,21.932-2.388,28.725-5.82
				c5.809-2.938,13.392-15.484,16.811-22.701l9.99,2.555c-1.022,2.157-10.28,21.235-20.808,26.556
				C432.294,173.815,411.287,175.608,408.923,175.797z"/>
		</g>
		<polygon fill="#754D25" points="399.763,197.942 342.486,183.715 350.116,178.928 362.617,183.346 359.951,163.342 
			366.753,162.354 367.781,183.954 407.656,195.552 		"/>
		<path fill="#64B148" d="M341.532,189.652c11.226-4.106,15.799-14.126,10.215-22.381c-5.584-8.253-19.214-11.617-30.442-7.509
			c-11.225,4.106-15.799,14.126-10.217,22.378C316.674,190.395,330.303,193.76,341.532,189.652z"/>
		<path fill="#64B148" d="M375.396,165.731c9.468-3.463,13.326-11.914,8.615-18.877c-4.712-6.96-16.201-9.797-25.672-6.334
			c-9.468,3.463-13.326,11.913-8.617,18.875C354.436,166.357,365.928,169.191,375.396,165.731z"/>
		<path fill="#64B148" d="M467.01,147.482c9.471-3.463,13.329-11.915,8.617-18.875c-4.71-6.962-16.203-9.797-25.674-6.334
			c-9.468,3.465-13.326,11.913-8.615,18.873C446.05,148.107,457.543,150.943,467.01,147.482z"/>
	</g>
	<g clip-path="url(#SVGID_2_)">
		<path fill="#754D25" d="M768.24,233.01c0,0,2.086,2.18,7.638,2.18c5.552,0,8.101-2.18,8.101-2.18l-1.81-71.042l-6.825,0.406
			L768.24,233.01z"/>
		<ellipse fill="#08A650" cx="779.037" cy="151.609" rx="28.185" ry="15.294"/>
		<polygon fill="#754D25" points="775.524,205.241 748.619,198.559 752.203,196.31 758.073,198.385 756.822,188.988 
			760.017,188.523 760.5,198.67 779.232,204.118 		"/>
		<path fill="#64B148" d="M748.169,201.348c5.273-1.93,7.422-6.637,4.799-10.514c-2.624-3.877-9.027-5.457-14.3-3.527
			c-5.274,1.928-7.422,6.635-4.8,10.512C736.493,201.696,742.896,203.277,748.169,201.348z"/>
		<path fill="#64B148" d="M764.077,190.111c4.448-1.627,6.26-5.597,4.047-8.867s-7.609-4.602-12.059-2.975
			c-4.448,1.627-6.26,5.596-4.047,8.867C754.231,190.403,759.629,191.736,764.077,190.111z"/>
	</g>
	<g clip-path="url(#SVGID_2_)">
		<path fill="#754D25" d="M835.562,245.006c0,0-1.24,2.187-6.79,2.187c-5.55,0-7.433-2.187-7.433-2.187l1.636-64.199l6.168,0.367
			L835.562,245.006z"/>
		<ellipse fill="#8EBC43" cx="826.459" cy="175.299" rx="25.47" ry="16.448"/>
	</g>
	<g clip-path="url(#SVGID_2_)">
		<path fill="#08A650" d="M272.263,253.176c-2.649-7.921-8.177-15.211-16.024-21.093c0.243-0.196,0.488-0.393,0.732-0.591
			c8.985,5.421,15.852,12.551,19.864,20.656C275.313,252.492,273.788,252.834,272.263,253.176z"/>
		<path fill="#08A650" d="M274.173,232.512c0,0,1.69,2.661,0.835,5.458c-0.859,2.795-3.938,4.668-3.938,4.668
			s-1.692-2.664-0.835-5.46C271.092,234.383,274.173,232.512,274.173,232.512z"/>
		<path fill="#08A650" d="M265.371,241.61c0,0-3.793,0.926-7.471-0.023c-3.68-0.951-5.85-3.417-5.85-3.417s3.796-0.926,7.473,0.024
			C263.203,239.144,265.371,241.61,265.371,241.61z"/>
		<path fill="#7CBFE9" d="M263.839,222.241c-0.866-1.614-3.07-2.656-5.612-2.656c-0.301,0-0.601,0.016-0.902,0.044
			c-0.688-2.01-2.976-3.493-5.69-3.493c-3.255,0-5.904,2.134-5.904,4.756c0,0.087,0.005,0.175,0.009,0.26
			c-0.114-0.01-0.229-0.021-0.345-0.028c-0.163-0.008-0.323-0.012-0.481-0.012c-3.366,0-6.164,1.768-6.369,4.024
			c-0.109,1.195,0.527,2.381,1.743,3.258c0.732,0.527,1.632,0.917,2.62,1.149c-0.55,2.036,0.654,4.096,3.105,4.952
			c0.739,0.257,1.529,0.386,2.355,0.386c1.841,0,3.604-0.661,4.822-1.751c1.073,0.509,2.306,0.789,3.551,0.789
			c1.456,0,2.827-0.388,3.856-1.095c1.189-0.818,1.828-2.005,1.754-3.257c-0.045-0.751-0.341-1.488-0.846-2.154
			C263.801,226.204,264.837,224.095,263.839,222.241z M251.636,225.65c0.042,0,0.082-0.002,0.125-0.003
			c0.013,0.029,0.027,0.059,0.042,0.087c0.016,0.029,0.036,0.056,0.051,0.085c-0.031,0.02-0.065,0.038-0.096,0.059
			c-0.029,0.021-0.058,0.043-0.087,0.066c-0.038-0.015-0.073-0.029-0.111-0.043s-0.076-0.025-0.114-0.036
			c0.002-0.031,0.009-0.061,0.011-0.092c0.004-0.043,0.004-0.085,0.007-0.126C251.522,225.648,251.578,225.65,251.636,225.65z"/>
		<path fill="#046937" d="M259.86,261.678c-3.965,0.687-8.055,0.018-8.055,0.018s2.34-1.777,6.305-2.465
			c3.964-0.684,8.053-0.016,8.053-0.016S263.827,260.996,259.86,261.678z"/>
		<path fill="#046937" d="M298.155,250.71c-1.418-0.214-2.611,0.938-4.03,0.725c-2.242,4.486-6.717,8.638-12.993,12.111
			c-0.472-0.066-0.958-0.11-1.465-0.11c-1.159,0-2.308,0.173-3.306,0.493c-0.279-0.167-0.591-0.318-0.925-0.45
			c-1.091-1.853-4.067-3.08-4.067-3.08s-1.07,1.142-1.145,2.586c-0.184,0.031-0.372,0.052-0.549,0.093
			c-2.283,0.532-3.405,1.818-2.893,3.087c-0.92,0.144-1.758,0.388-2.441,0.717c-1.132,0.547-1.724,1.286-1.623,2.029
			c0.191,1.407,2.797,2.509,5.933,2.509c0.148,0,0.296-0.002,0.447-0.005c0.108-0.007,0.216-0.011,0.322-0.02
			c-0.004,0.052-0.009,0.111-0.009,0.164c0,1.635,2.469,2.964,5.499,2.964c2.529,0,4.659-0.925,5.302-2.178
			c0.278,0.02,0.56,0.029,0.838,0.029c2.37,0,4.422-0.651,5.228-1.656c0.931-1.154-0.035-2.47-2.173-3.226
			c0.471-0.416,0.747-0.874,0.789-1.342c0.068-0.782-0.527-1.52-1.635-2.031c-0.239-0.11-0.501-0.208-0.777-0.291
			C289.573,260.609,294.817,255.222,298.155,250.71z"/>
		<g>
			<path fill="#046937" d="M297.099,260.748c0.797,1.743-0.778,3.401-0.778,3.401s-2.868-1.167-3.668-2.906
				c-0.798-1.743,0.778-3.403,0.778-3.403S296.299,259.006,297.099,260.748z"/>
			<path fill="#046937" d="M283.485,258.945c-3.426,0.594-6.96,0.016-6.96,0.016s2.021-1.537,5.449-2.131
				c3.425-0.591,6.959-0.013,6.959-0.013S286.913,258.356,283.485,258.945z"/>
		</g>
		<ellipse fill="#FCF27C" cx="251.637" cy="225.782" rx="4.527" ry="3.327"/>
		<path fill="#08A650" d="M293.979,251.443c1.545-6.977,0.505-14.167-3.037-20.816c0.287-0.095,0.572-0.192,0.857-0.286
			c4.661,6.563,6.899,12.908,6.356,20.369C296.781,250.603,295.352,251.549,293.979,251.443z"/>
		<path fill="#08A650" d="M305.043,235.443c0,0,0.118,2.545-1.854,4.56c-1.975,2.016-5.294,2.74-5.294,2.74s-0.12-2.545,1.854-4.561
			C301.721,236.167,305.043,235.443,305.043,235.443z"/>
		<path fill="#08A650" d="M293.825,240.502c0,0-3.453-0.209-5.946-1.884c-2.493-1.676-3.085-4.183-3.085-4.183
			s3.453,0.209,5.946,1.884C293.235,237.995,293.825,240.502,293.825,240.502z"/>
		<path fill="#C191C2" d="M301.548,224.676c0.053-1.501-1.222-2.882-3.25-3.517c-0.24-0.075-0.485-0.137-0.739-0.19
			c0.381-1.774-0.759-3.527-2.923-4.204c-2.596-0.812-5.692,0.228-6.903,2.319c-0.04,0.07-0.078,0.141-0.111,0.209
			c-0.089-0.036-0.174-0.075-0.265-0.108c-0.125-0.048-0.249-0.09-0.376-0.131c-2.683-0.839-5.732-0.126-6.937,1.622
			c-0.639,0.923-0.679,2.028-0.114,3.033c0.341,0.602,0.877,1.136,1.556,1.569c-1.378,1.484-1.367,3.429,0.191,4.722
			c0.47,0.389,1.042,0.691,1.698,0.897c1.467,0.46,3.179,0.37,4.655-0.193c0.617,0.674,1.471,1.205,2.464,1.516
			c1.162,0.363,2.433,0.396,3.582,0.088c1.322-0.355,2.38-1.142,2.901-2.159c0.312-0.609,0.414-1.27,0.32-1.928
			C299.684,227.828,301.485,226.404,301.548,224.676z M290.243,224.35c0.034,0.01,0.067,0.018,0.1,0.028
			c-0.002,0.026-0.004,0.054-0.007,0.079c0,0.028,0.002,0.054,0.002,0.082c-0.034,0.008-0.069,0.015-0.102,0.023
			c-0.036,0.01-0.067,0.02-0.1,0.029c-0.024-0.02-0.047-0.041-0.069-0.061c-0.027-0.02-0.051-0.038-0.076-0.057
			c0.018-0.024,0.036-0.046,0.051-0.07c0.025-0.033,0.042-0.067,0.065-0.1C290.152,224.319,290.197,224.335,290.243,224.35z"/>
		<path fill="#FCF27C" d="M293.792,225.584c-0.848,1.465-3.154,2.147-5.147,1.524c-1.992-0.624-2.921-2.317-2.072-3.782
			c0.85-1.466,3.152-2.149,5.147-1.525C293.712,222.425,294.64,224.119,293.792,225.584z"/>
	</g>
	<path clip-path="url(#SVGID_2_)" fill="#FFFFFF" d="M975.064,62.571c-3.359,0-6.557,0.405-9.497,1.122
		c-2.096-10.89-17.254-19.338-35.652-19.338c-5.089,0-9.927,0.649-14.312,1.816c-4.68-7.542-16.612-12.904-30.601-12.904
		c-14.01,0-25.959,5.382-30.622,12.942c-3.174-0.795-6.647-1.241-10.289-1.241c-14.99,0-27.141,7.42-27.141,16.573
		c0,0.824,0.131,1.628,0.322,2.419c-10.691,1.71-18.591,7.633-18.591,14.698c0,8.401,11.151,15.211,24.907,15.211h151.478
		c14.154,0,25.628-7.007,25.628-15.651C1000.692,69.577,989.218,62.571,975.064,62.571z"/>
	<path clip-path="url(#SVGID_2_)" fill="#FFFFFF" d="M738.562,21.476c-2.47-4.763-10.791-8.274-20.697-8.274
		c-5.333,0-10.2,1.02-13.957,2.699c-5.452-3.936-14.324-6.502-24.345-6.502c-14.462,0-26.536,5.337-29.392,12.442
		c-0.253-0.005-0.498-0.02-0.755-0.02c-10.651,0-19.283,4.506-19.283,10.066c0,1.657,0.781,3.218,2.141,4.598
		c-7.779,0.285-13.922,3.66-13.922,7.793c0,4.286,6.604,7.761,14.789,7.817v0.005h104.676c16.212,0,29.354-6.86,29.354-15.323
		C767.171,28.447,754.427,21.684,738.562,21.476z"/>
	<path clip-path="url(#SVGID_2_)" fill="#FFFFFF" d="M1125.629,22.412c-0.729-2.806-3.868-4.916-7.63-4.916
		c-1.334,0-2.588,0.266-3.685,0.733c-2.272-3.508-6.886-5.911-12.213-5.911c-5.808,0-10.774,2.86-12.768,6.897
		c-1.938-1.208-4.378-1.933-7.034-1.933c-6.283,0-11.379,4.028-11.379,9.001c0,0.155,0.021,0.306,0.029,0.458
		c-4.57,0.881-7.966,4.131-7.966,8.018c0,4.563,4.677,8.261,10.443,8.261h47.794c7.401,0,13.403-4.747,13.403-10.604
		C1134.624,27.784,1130.861,23.857,1125.629,22.412z"/>
</g>
</svg>
