<?xml version="1.0" encoding="utf-8"?>
<!-- Generator: Adobe Illustrator 17.0.1, SVG Export Plug-In . SVG Version: 6.00 Build 0)  -->
<!DOCTYPE svg PUBLIC "-//W3C//DTD SVG 1.1//EN" "http://www.w3.org/Graphics/SVG/1.1/DTD/svg11.dtd">
<svg version="1.1" id="Layer_1" xmlns="http://www.w3.org/2000/svg" xmlns:xlink="http://www.w3.org/1999/xlink" x="0px" y="0px"
	 width="144px" height="216px" viewBox="0 0 144 216" enable-background="new 0 0 144 216" xml:space="preserve">
<path fill-rule="evenodd" clip-rule="evenodd" fill="#FFE73F" d="M50.65,17.975C37.278,35.681,20.744,62.271,10.668,83.199
	c-2.543,5.28-3.038,7.811,3.027,8.424c10.32,1.042,30.354,1.745,42.812,3.87c3.36,0.573,3.994,2.524,2.041,5.84
	c-12.176,20.673-24.595,45.46-36.205,69.029c-6.157,12.497-13.313,30.9-17.63,40.842c11.993-9.791,18.061-14.674,30.681-25.79
	c31.037-27.34,72.508-73.546,102.638-104.405c4.861-4.978,3.964-8.608-0.078-9.046c-20.835-2.262-41.412-3.682-61.554-5.455
	c1.133-3.893,26.88-35.643,42.5-55.855C127.579-0.578,63.755,0.622,50.65,17.975z"/>
</svg>
