<?xml version="1.0" encoding="utf-8"?>
<!-- Generator: Adobe Illustrator 17.0.1, SVG Export Plug-In . SVG Version: 6.00 Build 0)  -->
<!DOCTYPE svg PUBLIC "-//W3C//DTD SVG 1.1//EN" "http://www.w3.org/Graphics/SVG/1.1/DTD/svg11.dtd">
<svg version="1.1" id="Layer_1" xmlns="http://www.w3.org/2000/svg" xmlns:xlink="http://www.w3.org/1999/xlink" x="0px" y="0px"
	 width="216px" height="216px" viewBox="0 0 216 216" enable-background="new 0 0 216 216" xml:space="preserve">
<g>
	<path fill-rule="evenodd" clip-rule="evenodd" fill="#B7CBC1" d="M215.859,140.823l-0.038,0.115
		c-16.497,49.486-67.061,79.347-118.785,73.34c-2.189-12.084-14.119-22.135-29.517-23.76c-8.23-0.869-16.036,0.818-22.263,4.311
		c-21.992-15.292-37.212-37.791-43.151-62.804c8.92-0.42,16.455-7.016,17.46-15.825c1.114-9.764-6.216-18.551-16.369-19.622
		c-1.071-0.113-2.129-0.133-3.168-0.071c0.808-6.892,2.33-13.809,4.615-20.666C22.896,21.085,82.874-9.652,139.974,5.676
		c-24.631-0.485-48.294,8.667-65.701,24.841c-1.059-0.625-2.276-1.042-3.593-1.181c-4.769-0.503-9.06,2.808-9.584,7.395
		c-0.271,2.375,0.523,4.628,2.013,6.318c-5.24,7.146-9.459,15.165-12.38,23.929c-15.469,46.409,11.116,96.103,59.368,110.971
		C150.89,190.521,194.114,174.199,215.859,140.823L215.859,140.823z M66.502,159.97c-2.73-0.288-5.186,1.606-5.484,4.228
		c-0.3,2.625,1.67,4.987,4.4,5.275c2.725,0.288,5.181-1.607,5.481-4.232C71.198,162.62,69.228,160.258,66.502,159.97L66.502,159.97z
		 M30.713,141.317c-5.853-0.617-11.119,3.446-11.761,9.073c-0.643,5.628,3.583,10.692,9.435,11.31
		c5.851,0.618,11.117-3.446,11.76-9.073C40.788,146.999,36.564,141.935,30.713,141.317z"/>
	<polygon fill-rule="evenodd" clip-rule="evenodd" fill="#B7CBC1" points="170.351,117.239 172.946,134.703 191.106,137.198 
		172.946,139.692 170.351,157.157 167.758,139.692 149.597,137.198 167.758,134.703 	"/>
	<polygon fill-rule="evenodd" clip-rule="evenodd" fill="#B7CBC1" points="115.044,33.243 118.977,59.721 146.512,63.504 
		118.977,67.287 115.044,93.764 111.11,67.287 83.576,63.504 111.11,59.721 	"/>
	<polygon fill-rule="evenodd" clip-rule="evenodd" fill="#B7CBC1" points="199.128,27.713 200.902,39.655 213.32,41.36 
		200.902,43.067 199.128,55.009 197.353,43.067 184.935,41.36 197.353,39.655 	"/>
</g>
</svg>
