<?xml version="1.0" encoding="utf-8"?>
<!-- Generator: Adobe Illustrator 17.0.1, SVG Export Plug-In . SVG Version: 6.00 Build 0)  -->
<!DOCTYPE svg PUBLIC "-//W3C//DTD SVG 1.1//EN" "http://www.w3.org/Graphics/SVG/1.1/DTD/svg11.dtd">
<svg version="1.1" id="Layer_1" xmlns="http://www.w3.org/2000/svg" xmlns:xlink="http://www.w3.org/1999/xlink" x="0px" y="0px"
	 width="144px" height="216px" viewBox="0 0 144 216" enable-background="new 0 0 144 216" xml:space="preserve">
<path fill-rule="evenodd" clip-rule="evenodd" fill="#9BD9E3" d="M73.625,0.74c17.829,71.818,69.443,107.885,69.443,147.234
	c0,39.35-30.395,66.604-69.443,66.604S1.636,187.324,1.636,147.974C1.636,108.624,53.91,73.497,73.625,0.74L73.625,0.74z
	 M125.106,145.631c-2.953-0.762-6.312,1.098-7.498,4.154c-1.187,3.056,0.248,6.155,3.201,6.917c2.953,0.763,6.312-1.1,7.497-4.157
	C129.493,149.489,128.058,146.394,125.106,145.631L125.106,145.631z M117.118,163.262c-6.215-3.753-15.378-1.165-20.463,5.782
	c-5.085,6.948-4.167,15.625,2.047,19.379c6.213,3.754,15.376,1.164,20.46-5.783C124.247,175.693,123.333,167.016,117.118,163.262z"
	/>
</svg>
