<?xml version="1.0" encoding="utf-8"?>
<!-- Generator: Adobe Illustrator 17.0.1, SVG Export Plug-In . SVG Version: 6.00 Build 0)  -->
<!DOCTYPE svg PUBLIC "-//W3C//DTD SVG 1.1//EN" "http://www.w3.org/Graphics/SVG/1.1/DTD/svg11.dtd">
<svg version="1.1" class="wm-weather-svg wm-snow-svg" xmlns="http://www.w3.org/2000/svg" viewBox="0 0 216 216" preserveAspectRatio="xMinYMin meet">
<path fill-rule="evenodd" clip-rule="evenodd" fill="#7ED3F7" d="M1.287,108.234c0-4.155,3.407-7.553,7.572-7.553h23.667
	l-7.149-7.132c-2.577-2.571-2.577-6.776,0-9.347l-0.001,0.001c2.577-2.571,6.793-2.571,9.37,0l16.519,16.478h38.374L49.249,60.389
	c-2.945-2.936-2.945-7.743,0-10.68l0,0c2.944-2.938,7.763-2.938,10.708,0l40.389,40.29v-38.75L84.064,35.007
	c-2.577-2.571-2.577-6.775,0-9.346h-0.001c2.577-2.569,6.793-2.569,9.37,0l6.913,6.897V9.418c0-4.154,3.407-7.553,7.572-7.553l0,0
	c4.165,0,7.571,3.399,7.571,7.553v23.17l6.929-6.911c2.576-2.571,6.792-2.571,9.37,0h-0.001c2.577,2.569,2.577,6.775,0,9.346
	L115.49,51.28v38.719l40.39-40.29c2.945-2.938,7.763-2.938,10.708,0l0,0c2.944,2.938,2.944,7.744,0,10.682l-40.391,40.29h38.815
	l16.298-16.259c2.577-2.571,6.793-2.571,9.37,0l0,0c2.576,2.571,2.576,6.776,0,9.346l-6.929,6.913h23.227
	c4.165,0,7.572,3.398,7.571,7.553l0,0c0.001,4.154-3.406,7.553-7.571,7.553h-23.195l6.913,6.895c2.577,2.571,2.577,6.776,0,9.346
	l0,0c-2.576,2.571-6.792,2.571-9.369,0l-16.282-16.241h-38.847l40.391,40.29c2.944,2.936,2.944,7.743,0,10.68l0,0
	c-2.945,2.938-7.763,2.938-10.708,0l-40.39-40.29v38.278l16.519,16.478c2.576,2.571,2.576,6.777,0,9.347l0,0
	c-2.576,2.571-6.792,2.571-9.369,0l-7.15-7.133v23.611c0,4.155-3.407,7.553-7.571,7.553l0,0c-4.165,0-7.572-3.398-7.572-7.553
	v-23.17l-6.929,6.911c-2.576,2.571-6.792,2.571-9.369,0l0,0c-2.576-2.569-2.576-6.775,0-9.346l16.298-16.257v-38.719l-40.39,40.29
	c-2.944,2.938-7.763,2.938-10.707,0l0,0c-2.945-2.938-2.945-7.744,0-10.68l40.389-40.29H50.824l-16.298,16.257
	c-2.576,2.571-6.793,2.571-9.37,0h0.001c-2.577-2.571-2.577-6.775,0-9.346l6.928-6.911H8.859
	C4.694,115.786,1.287,112.387,1.287,108.234"/>
</svg>
