<?xml version="1.0" encoding="utf-8"?>
<!-- Generator: Adobe Illustrator 17.0.1, SVG Export Plug-In . SVG Version: 6.00 Build 0)  -->
<!DOCTYPE svg PUBLIC "-//W3C//DTD SVG 1.1//EN" "http://www.w3.org/Graphics/SVG/1.1/DTD/svg11.dtd">
<svg version="1.1" id="Layer_1" xmlns="http://www.w3.org/2000/svg" xmlns:xlink="http://www.w3.org/1999/xlink" x="0px" y="0px"
	 width="216px" height="216px" viewBox="0 0 216 216" enable-background="new 0 0 216 216" xml:space="preserve">
<path fill-rule="evenodd" clip-rule="evenodd" fill="#FFCB05" d="M108.442,42.52c35.938,0,65.082,29.094,65.082,64.97
	c0,35.877-29.144,64.973-65.082,64.973c-35.937,0-65.082-29.096-65.082-64.973C43.361,71.614,72.506,42.52,108.442,42.52z"/>
<path fill-rule="evenodd" clip-rule="evenodd" fill="#FFCB05" d="M108.441,1.728C103.233,21.267,96.474,28.75,82.604,38.53
	c7.922-3.426,16.657-5.33,25.838-5.33c9.182,0,17.917,1.904,25.838,5.33C119.01,28.501,113.638,21.421,108.441,1.728"/>
<path fill-rule="evenodd" clip-rule="evenodd" fill="#FFCB05" d="M134.282,176.452c-15.271,10.029-20.645,17.109-25.841,36.804
	c-5.209-19.541-11.967-27.023-25.837-36.803c7.922,3.426,16.657,5.329,25.838,5.329
	C117.625,181.782,126.359,179.879,134.282,176.452z"/>
<g>
	<path fill-rule="evenodd" clip-rule="evenodd" fill="#FFCB05" d="M39.365,81.696C29.32,96.94,22.228,102.305,2.499,107.493
		c19.574,5.2,27.069,11.947,36.865,25.793c-3.432-7.908-5.338-16.629-5.338-25.795C34.026,98.325,35.934,89.604,39.365,81.696z"/>
	<path fill-rule="evenodd" clip-rule="evenodd" fill="#FFCB05" d="M177.521,81.696c10.046,15.245,17.137,20.61,36.865,25.798
		c-19.574,5.198-27.068,11.947-36.865,25.793c3.432-7.908,5.338-16.629,5.338-25.795C182.859,98.325,180.952,89.604,177.521,81.696z
		"/>
</g>
<g>
	<path fill-rule="evenodd" clip-rule="evenodd" fill="#FFCB05" d="M77.87,40.487c-17.902,3.689-26.717,2.476-44.342-7.782
		c10.159,17.494,10.68,27.555,7.799,44.263c3.175-8.015,8.004-15.527,14.496-22.008C62.316,48.477,69.841,43.657,77.87,40.487z"/>
	<path fill-rule="evenodd" clip-rule="evenodd" fill="#FFCB05" d="M175.561,138.012c-3.695,17.872-2.481,26.67,7.795,44.265
		c-17.522-10.14-27.602-10.66-44.338-7.785c8.028-3.169,15.553-7.99,22.045-14.471C167.557,153.539,172.385,146.027,175.561,138.012
		z"/>
</g>
<g>
	<path fill-rule="evenodd" clip-rule="evenodd" fill="#FFCB05" d="M139.016,40.487c17.9,3.689,26.716,2.476,44.34-7.782
		c-10.159,17.494-10.68,27.555-7.798,44.263c-3.176-8.015-8.004-15.527-14.497-22.008C154.569,48.477,147.044,43.657,139.016,40.487
		z"/>
	<path fill-rule="evenodd" clip-rule="evenodd" fill="#FFCB05" d="M41.325,138.012c3.694,17.872,2.479,26.67-7.797,44.265
		c17.524-10.14,27.602-10.66,44.338-7.785c-8.028-3.169-15.553-7.99-22.045-14.471C49.328,153.539,44.5,146.027,41.325,138.012z"/>
</g>
</svg>
