<?xml version="1.0" encoding="utf-8"?>
<!-- Generator: Adobe Illustrator 17.0.1, SVG Export Plug-In . SVG Version: 6.00 Build 0)  -->
<!DOCTYPE svg PUBLIC "-//W3C//DTD SVG 1.1//EN" "http://www.w3.org/Graphics/SVG/1.1/DTD/svg11.dtd">
<svg version="1.1" id="Layer_1" xmlns="http://www.w3.org/2000/svg" xmlns:xlink="http://www.w3.org/1999/xlink" x="0px" y="0px"
	 width="108px" height="216px" viewBox="0 0 108 216" enable-background="new 0 0 108 216" xml:space="preserve">
<g>
	<path fill-rule="evenodd" clip-rule="evenodd" fill="#CE152D" d="M84.045,127.901c12.424,8.75,20.49,22.833,20.49,38.713
		c0,26.539-22.513,48.06-50.271,48.06c-27.76,0-50.272-21.521-50.272-48.06c0-15.881,8.066-29.964,20.49-38.713V24.658
		c0-12.527,10.722-22.776,23.826-22.776H60.22c13.104,0,23.825,10.249,23.825,22.776V127.901L84.045,127.901z M75.464,138.854
		l-4.443-3.387V30.931c0-16.207-3.315-16.91-12.643-16.91h-8.481c-13.622,0-11.802,11.997-11.799,17.534l0.039,103.912l-5.076,3.387
		c-8.844,6.229-14.585,16.255-14.585,27.561c0,18.891,16.027,34.213,35.788,34.213c19.76,0,35.787-15.322,35.787-34.213
		C90.05,155.109,84.309,145.083,75.464,138.854z"/>
	<path fill-rule="evenodd" clip-rule="evenodd" fill="#CE152D" d="M62.637,142.549V70.301c0-5.637,0.001-7.999-5.438-7.999h-6.05
		c-4.903,0-4.903,4.494-4.903,8.444v71.803l-7.107,4.743c-6.31,4.444-10.406,11.596-10.406,19.661
		c0,13.478,11.432,24.408,25.53,24.408c14.097,0,25.529-10.93,25.529-24.408c0-8.065-4.096-15.218-10.406-19.661L62.637,142.549z"/>
</g>
</svg>
