<?xml version="1.0" encoding="utf-8"?>
<!-- Generator: Adobe Illustrator 17.0.1, SVG Export Plug-In . SVG Version: 6.00 Build 0)  -->
<!DOCTYPE svg PUBLIC "-//W3C//DTD SVG 1.1//EN" "http://www.w3.org/Graphics/SVG/1.1/DTD/svg11.dtd">
<svg version="1.1" id="Layer_1" xmlns="http://www.w3.org/2000/svg" xmlns:xlink="http://www.w3.org/1999/xlink" x="0px" y="0px"
	 width="216px" height="216px" viewBox="0 0 216 216" enable-background="new 0 0 216 216" xml:space="preserve">
<g>
	<path fill-rule="evenodd" clip-rule="evenodd" fill="#B0ACD5" d="M108.645,2.871c58.414,1.088,105.514,17.176,105.169,35.91
		c-0.343,18.733-48.001,33.055-106.415,31.967C48.982,69.658,1.884,53.571,2.228,34.838C2.573,16.104,50.23,1.782,108.645,2.871
		L108.645,2.871z M108.469,12.424c-44.751-0.834-81.247,9.416-81.494,22.875c-0.246,13.46,35.848,25.062,80.597,25.896
		c44.751,0.834,81.247-9.416,81.495-22.876C189.314,24.859,153.22,13.257,108.469,12.424z"/>
	<path fill-rule="evenodd" clip-rule="evenodd" fill="#B0ACD5" d="M4.421,50.773c20.355,37.013,134.372,39.578,193.118,10.789
		C165.485,88.999,17.109,128.23,4.421,50.773z"/>
	<path fill-rule="evenodd" clip-rule="evenodd" fill="#B0ACD5" d="M46.429,45C47.35,32.53,91.233,29.18,99.7,28.974
		c26.896-0.656,58.365,0.14,76.959,9.459C149.489,15.975,73.815,14.109,50.785,28.168C37.594,36.22,43.974,44.954,46.429,45z"/>
	<path fill-rule="evenodd" clip-rule="evenodd" fill="#B0ACD5" d="M187.976,78.213c-15.877,13.897-24.787,17.597-43.906,22.877
		c-37.72,10.416-87.643,10.715-118.679-11.434c20.064,31.087,79.402,39.819,120.83,26.244
		C167.179,109.032,182.569,95.426,187.976,78.213z"/>
	<path fill-rule="evenodd" clip-rule="evenodd" fill="#B0ACD5" d="M162.458,116.307c-23.317,18.166-77.764,32.844-129.248-11.967
		C62.767,154.402,137.9,168.009,162.458,116.307z"/>
	<path fill-rule="evenodd" clip-rule="evenodd" fill="#B0ACD5" d="M53.959,134.024c11.046,16.432,59.845,30.827,86.56,14.444
		C121.985,173.211,58.407,167.811,53.959,134.024z"/>
	<path fill-rule="evenodd" clip-rule="evenodd" fill="#B0ACD5" d="M57.909,149.784c7.095,15.109,43.188,30.502,64.926,17.518
		C106.661,188.113,58.549,179.842,57.909,149.784z"/>
	<path fill-rule="evenodd" clip-rule="evenodd" fill="#B0ACD5" d="M122.908,171.51c-5.315,10.209-29.659,19.007-43.348,8.687
		C89.256,195.7,121.172,192.57,122.908,171.51z"/>
	<path fill-rule="evenodd" clip-rule="evenodd" fill="#B0ACD5" d="M123.649,181.669c-2.566,8.526-18.51,17.654-29.157,10.756
		C102.937,203.77,124.766,198.425,123.649,181.669z"/>
	<path fill-rule="evenodd" clip-rule="evenodd" fill="#B0ACD5" d="M112.039,200.907c-4.809,3.844-16.423,2.882-18.765-5.127
		C92.685,205.461,105.605,210.833,112.039,200.907z"/>
	<path fill-rule="evenodd" clip-rule="evenodd" fill="#B0ACD5" d="M107.821,206.7c-2.697,4.013-10.689,4.882-13.428-1.671
		C95.391,213.451,104.902,216.187,107.821,206.7z"/>
</g>
</svg>
