<?xml version="1.0" encoding="utf-8"?>
<!-- Generator: Adobe Illustrator 17.0.1, SVG Export Plug-In . SVG Version: 6.00 Build 0)  -->
<!DOCTYPE svg PUBLIC "-//W3C//DTD SVG 1.1//EN" "http://www.w3.org/Graphics/SVG/1.1/DTD/svg11.dtd">
<svg version="1.1" id="Layer_1" xmlns="http://www.w3.org/2000/svg" xmlns:xlink="http://www.w3.org/1999/xlink" x="0px" y="0px"
	 width="216px" height="108px" viewBox="0 0 216 108" enable-background="new 0 0 216 108" xml:space="preserve">
<g>
	<path fill-rule="evenodd" clip-rule="evenodd" fill="#5DA9DD" d="M135.592,35.537c-9.667-3.442-6.957-11.641,1.238-13.781
		c8.254-2.155,18.759-0.463,24.445,5.727c2.231,2.429,3.132,5.961,1.666,11.185c-6.517,23.225-54.939,26.727-106.82,2.401
		C40.684,33.832,9.16,7.98,0.29,34.456c11.128-22.242,39.621,5.58,53.051,13.309c29.591,17.03,61.009,28.397,96.198,23.823
		c32.18-4.181,55.185-33.913,25.303-53.215c-10.745-6.941-31.551-12.944-43.683-2.614C122.189,23.395,123.399,32.237,135.592,35.537
		z"/>
	<path fill-rule="evenodd" clip-rule="evenodd" fill="#5DA9DD" d="M2.071,33.268c4.313-4.33,9.313-4.112,14.327-1.824
		c14.205,6.48,26.459,19.946,39.517,28.889C98.742,89.662,160.747,96.713,188.3,82.014c23.948-12.776,33.383-39.439,18.268-59.141
		C193.522,5.871,156.629-6.445,134.209,4.867c-14.775,7.455-20.496,25.629-1.133,30.942c-2.737-1.379-5.021-2.551-6.555-4.149
		c-9.381-9.766,2.641-22.834,20.899-24.5c13.62-1.243,32.46,5.518,42.671,17.033c16.988,19.156,0.909,48.919-38.75,52.431
		c-34.135,3.022-65.793-5.469-93.436-20.671c-13.685-7.526-26.721-21.917-41.249-26.847C11.204,27.255,6.006,27.762,2.071,33.268z"
		/>
	<path fill-rule="evenodd" clip-rule="evenodd" fill="#5DA9DD" d="M200.44,80.913c-22.07,14.419-44.786,17.47-72.39,12.942
		c-21.267-3.489-42.27-10.763-61.713-21.428C46.908,61.77,29.65,43.891,18.674,35.142C13.684,31.167,5.44,29.899,2.281,35.11
		c4.131-3.439,10.512-1.507,13.55,1.673c5.887,6.164,15.941,16.101,19.697,19.965c23.729,24.414,58.272,46.363,94.848,49.692
		C154.601,108.645,186.293,100.033,200.44,80.913z"/>
</g>
</svg>
